<svg width="53" height="53" viewBox="0 0 53 53" fill="none" xmlns="http://www.w3.org/2000/svg">
<path d="M35.0631 26.5714C35.0631 31.2924 31.2126 35.1429 26.4916 35.1429C21.7706 35.1429 17.9202 31.2924 17.9202 26.5714C17.9202 21.8504 21.7706 18 26.4916 18C31.2126 18 35.0631 21.8504 35.0631 26.5714ZM39.6836 26.5714C39.6836 19.2723 33.7907 13.3795 26.4916 13.3795C19.1925 13.3795 13.2997 19.2723 13.2997 26.5714C13.2997 33.8705 19.1925 39.7634 26.4916 39.7634C33.7907 39.7634 39.6836 33.8705 39.6836 26.5714ZM43.2997 12.8438C43.2997 11.1362 41.9269 9.76339 40.2193 9.76339C38.5117 9.76339 37.139 11.1362 37.139 12.8438C37.139 14.5513 38.5117 15.9241 40.2193 15.9241C41.9269 15.9241 43.2997 14.5513 43.2997 12.8438ZM26.4916 5.47768C30.2416 5.47768 38.2773 5.17634 41.659 6.51562C42.8309 6.98437 43.7015 7.55357 44.6055 8.45759C45.5095 9.36161 46.0787 10.2321 46.5474 11.404C47.8867 14.7857 47.5854 22.8214 47.5854 26.5714C47.5854 30.3214 47.8867 38.3571 46.5474 41.7388C46.0787 42.9107 45.5095 43.7812 44.6055 44.6853C43.7015 45.5893 42.8309 46.1585 41.659 46.6272C38.2773 47.9665 30.2416 47.6652 26.4916 47.6652C22.7416 47.6652 14.7059 47.9665 11.3242 46.6272C10.1523 46.1585 9.28181 45.5893 8.37779 44.6853C7.47377 43.7812 6.90458 42.9107 6.43583 41.7388C5.09654 38.3571 5.39788 30.3214 5.39788 26.5714C5.39788 22.8214 5.09654 14.7857 6.43583 11.404C6.90458 10.2321 7.47377 9.36161 8.37779 8.45759C9.28181 7.55357 10.1523 6.98437 11.3242 6.51562C14.7059 5.17634 22.7416 5.47768 26.4916 5.47768ZM52.2059 26.5714C52.2059 23.0223 52.2394 19.5067 52.0385 15.9576C51.8376 11.8393 50.9001 8.18973 47.8867 5.17634C44.8733 2.16294 41.2238 1.22544 37.1055 1.02455C33.5564 0.823659 30.0407 0.85714 26.4916 0.85714C22.9425 0.85714 19.4269 0.823659 15.8778 1.02455C11.7595 1.22544 8.10993 2.16294 5.09654 5.17634C2.08315 8.18973 1.14565 11.8393 0.944754 15.9576C0.743862 19.5067 0.777344 23.0223 0.777344 26.5714C0.777344 30.1205 0.743862 33.6362 0.944754 37.1853C1.14565 41.3036 2.08315 44.9531 5.09654 47.9665C8.10993 50.9799 11.7595 51.9174 15.8778 52.1183C19.4269 52.3192 22.9425 52.2857 26.4916 52.2857C30.0407 52.2857 33.5564 52.3192 37.1055 52.1183C41.2238 51.9174 44.8733 50.9799 47.8867 47.9665C50.9001 44.9531 51.8376 41.3036 52.0385 37.1853C52.2394 33.6362 52.2059 30.1205 52.2059 26.5714Z" fill="#3E6B8B"/>
</svg>
