<svg width="452" height="509" viewBox="0 0 452 509" fill="none" xmlns="http://www.w3.org/2000/svg">
<path d="M443.014 66.2769V501H8.29053V66.2769L425 8" stroke="#3E6B8B" stroke-width="16" stroke-miterlimit="2" stroke-linejoin="bevel"/>
<path d="M131.709 249.819L130.61 148.397C130.61 145.885 131.604 143.739 133.593 141.96C135.686 140.076 138.041 138.768 140.658 138.035C143.275 137.302 145.734 137.198 148.037 137.721C150.34 138.244 151.805 139.605 152.433 141.803C154.422 145.78 155.782 151.275 156.515 158.288C157.876 171.371 158.556 182.675 158.556 192.2C159.603 193.875 160.911 194.66 162.481 194.555C166.982 183.565 171.953 172.994 177.396 162.841C182.839 152.688 186.345 146.199 187.915 143.373C189.485 140.442 191.369 138.401 193.567 137.25C195.765 136.099 198.12 135.366 200.632 135.052C206.075 134.424 211.203 135.366 216.018 137.878C219.681 139.134 221.827 141.28 222.455 144.315C224.862 149.13 223.24 154.677 217.588 160.957C210.994 171.424 204.348 182.989 197.649 195.654C184.88 220.041 176.768 235.061 173.314 240.713C169.86 246.365 167.348 250.395 165.778 252.802C164.208 255.105 162.429 257.041 160.44 258.611C156.881 261.437 152.59 262.588 147.566 262.065C138.774 261.751 133.645 258.977 132.18 253.744C131.866 252.279 131.709 250.97 131.709 249.819ZM332.457 148.868C328.793 160.277 325.392 170.586 322.252 179.797C319.216 189.008 316.39 197.486 313.774 205.231C311.262 212.976 308.907 220.146 306.709 226.74C304.511 233.229 302.47 239.457 300.586 245.423C299.539 252.331 296.137 257.198 290.381 260.024C287.031 261.594 283.054 262.379 278.449 262.379C273.843 262.379 270.389 261.856 268.087 260.809C265.784 259.867 264.319 258.454 263.691 256.57C262.958 254.686 262.958 252.436 263.691 249.819C264.319 247.098 265.47 243.434 267.145 238.829C268.819 234.119 270.913 227.787 273.425 219.832C276.041 211.877 278.763 203.818 281.589 195.654C288.601 175.244 294.149 161.114 298.231 153.264C299.801 150.333 301.371 148.397 302.941 147.455C304.511 146.408 306.028 145.676 307.494 145.257C308.959 144.734 310.32 144.158 311.576 143.53C312.832 142.902 313.931 141.332 314.873 138.82C315.919 136.308 317.751 134.581 320.368 133.639C323.089 132.697 325.601 132.645 327.904 133.482C330.311 134.215 332.09 135.889 333.242 138.506C334.498 141.018 334.236 144.472 332.457 148.868ZM192.965 371.258C192.547 375.759 191.709 380.364 190.453 385.074C189.302 389.784 187.575 394.389 185.272 398.89C183.074 403.391 180.405 407.734 177.265 411.921C174.23 416.108 170.828 419.98 167.06 423.539C163.292 427.098 159.263 430.081 154.971 432.488C145.761 437.931 136.864 439.867 128.281 438.297C126.397 442.379 123.571 444.943 119.803 445.99C116.14 447.141 112.477 447.141 108.813 445.99C105.255 444.943 102.115 442.902 99.3932 439.867C96.6719 436.832 95.3112 432.697 95.3112 427.464C95.3112 422.126 95.6776 416.683 96.4102 411.136C97.1429 405.589 98.1372 400.251 99.3932 395.122C101.382 386.644 103.842 378.689 106.772 371.258C113.68 354.407 117.605 342.579 118.547 335.776C119.908 326.67 122.42 321.018 126.083 318.82C132.154 315.261 137.911 313.744 143.353 314.267C148.796 314.79 153.715 316.099 158.111 318.192C165.333 321.646 173.131 327.455 181.504 335.619C190.715 344.516 194.535 356.395 192.965 371.258ZM131.264 418.358C136.602 415.637 140.894 412.863 144.138 410.037C147.488 407.106 150.628 404.437 153.558 402.03C158.059 397.529 161.356 392.191 163.449 386.016C168.055 372.409 165.124 362.1 154.657 355.087C153.087 353.936 150.732 352.366 147.592 350.377C146.127 353.726 145.028 357.233 144.295 360.896C143.667 364.559 142.778 368.118 141.626 371.572L137.387 385.388L133.933 400.303C133.724 402.396 133.41 404.437 132.991 406.426C132.573 408.31 132.206 410.299 131.892 412.392L131.264 418.358ZM352.124 371.258C351.705 375.759 350.868 380.364 349.612 385.074C348.461 389.784 346.734 394.389 344.431 398.89C342.233 403.391 339.564 407.734 336.424 411.921C333.389 416.108 329.987 419.98 326.219 423.539C322.451 427.098 318.421 430.081 314.13 432.488C304.919 437.931 296.023 439.867 287.44 438.297C285.556 442.379 282.73 444.943 278.962 445.99C275.299 447.141 271.635 447.141 267.972 445.99C264.413 444.943 261.273 442.902 258.552 439.867C255.831 436.832 254.47 432.697 254.47 427.464C254.47 422.126 254.836 416.683 255.569 411.136C256.302 405.589 257.296 400.251 258.552 395.122C260.541 386.644 263 378.689 265.931 371.258C272.839 354.407 276.764 342.579 277.706 335.776C279.067 326.67 281.579 321.018 285.242 318.82C291.313 315.261 297.069 313.744 302.512 314.267C307.955 314.79 312.874 316.099 317.27 318.192C324.492 321.646 332.29 327.455 340.663 335.619C349.874 344.516 353.694 356.395 352.124 371.258ZM290.423 418.358C295.761 415.637 300.052 412.863 303.297 410.037C306.646 407.106 309.786 404.437 312.717 402.03C317.218 397.529 320.515 392.191 322.608 386.016C327.213 372.409 324.283 362.1 313.816 355.087C312.246 353.936 309.891 352.366 306.751 350.377C305.286 353.726 304.187 357.233 303.454 360.896C302.826 364.559 301.936 368.118 300.785 371.572L296.546 385.388L293.092 400.303C292.883 402.396 292.569 404.437 292.15 406.426C291.731 408.31 291.365 410.299 291.051 412.392L290.423 418.358Z" fill="#3E6B8B"/>
</svg>
